<svg
xmlns="http://www.w3.org/2000/svg"
width="32"
height="32"
viewBox="0 0 260 260"
fill="currentColor"
>
  <mask id="mask1">
    <rect width="260" height="260" fill="white"/>
    <path d="M165.12 206.543L191.93 221.145V99.8984L165.958 84.8174L139.865 69.7363L113.772 84.8174L87.6797 99.8984V160.103L113.772 175.184L139.865 190.145L165.12 175.543V206.543ZM165.12 144.543L139.865 159.145L114.61 144.543V115.339L139.865 100.736L165.12 115.339V144.543Z" fill="black"/>
  </mask>

  <g mask="url(#mask1)">
    <path fill="currentColor" d="M185.103 206.422L181.513 106.121L174.93 79.6698L218.856 84.3377V205.704L192.046 221.264L185.103 206.422Z"/>
    <path fill="currentColor" d="M218.859 84.3382L192.049 99.898L136.512 87.6896L71.6394 114.141L60.8672 84.3382L100.365 61.5969L139.863 38.736L179.361 61.4772L218.859 84.3382Z"/>
    <path fill="currentColor" d="M60.8672 84.338L87.678 99.8978L103.238 146.218L155.782 188.23L139.863 221.145L100.365 198.284L60.8672 175.542V84.338Z"/>
    <path fill="currentColor" d="M157.697 163.933L139.863 190.145V221.145L165.118 206.543L178.164 187.153"/>
    <path fill="currentColor" d="M139.864 159.145L114.609 115.338L119.995 100.856L140.702 90.8018L165.119 115.338L139.864 159.145Z"/>
    <path fill="currentColor" d="M114.611 115.339L139.866 129.941V159.146L116.526 160.103L102.402 142.03L114.611 115.339Z"/>
    <path fill="currentColor" d="M139.863 129.941L165.118 115.339L182.354 143.945L161.527 161.18L139.863 159.145V129.941Z"/>
  </g>
</svg>