<svg xmlns="http://www.w3.org/2000/svg" width="1024" height="1024" viewBox="100 300 820 400" fill="currentColor"><g transform="translate(0,1024) scale(0.100000,-0.100000)"><path d="M1160 5190 l0 -1679 276 -3 c152 -2 278 -1 280 1 2 2 4 620 4 1374 0 785 4 1367 9 1365 7 -2 352 -436 1035 -1302 77 -98 197 -249 265 -335 69 -86 192 -241 273 -346 82 -104 153 -191 158 -193 4 -2 68 73 141 165 74 92 338 425 588 738 250 314 524 658 610 765 85 107 177 222 203 255 27 33 83 104 125 158 41 53 79 97 84 97 5 0 9 -573 9 -1370 l0 -1369 281 -3 c154 -2 283 -1 285 1 2 2 4 339 4 748 l0 743 1345 0 1345 0 0 -745 0 -744 276 -3 c152 -2 278 -1 280 1 2 2 4 760 4 1683 l0 1678 -277 -2 -278 -3 -3 -682 -2 -683 -1345 0 -1345 0 0 685 0 685 -352 0 -353 -1 -61 -77 c-68 -85 -702 -881 -1021 -1282 -435 -546 -535 -670 -537 -670 -2 0 -25 28 -52 63 -46 59 -214 270 -549 692 -83 105 -200 252 -260 329 -61 76 -219 276 -353 445 -134 168 -278 350 -320 403 l-77 98 -347 0 -348 0 0 -1680z"></path></g></svg>